<svg xmlns="http://www.w3.org/2000/svg" viewBox="0 0 793 250"><defs><linearGradient id="a" x1="50%" x2="50%" y2="100%"><stop stop-color="#006AFF" offset="0"></stop><stop stop-color="#0461E4" offset="1"></stop></linearGradient></defs><g fill="none" fill-rule="evenodd"><g fill="url(#a)"><path d="m26.473 234.95v-135.88h-16.675c-5.4112 0-9.7978-4.3866-9.7978-9.7978v-9.0124c6.2151e-15 -8.1167 6.5799-14.697 14.697-14.697h11.776c0-41.484 22.761-63.279 68.283-65.387 3.9591-0.18336 7.3171 2.8775 7.5005 6.8365 0.005122 0.11059 0.007684 0.22129 0.007684 0.332l1e-6 21.657c0 5.089-3.8961 9.3308-8.9668 9.7625-2.5348 0.21576-4.4415 0.46863-5.7201 0.75861-3.7473 0.84981-6.7088 2.3673-8.8847 4.5526s-3.6868 5.0381-4.533 8.5588c-0.84616 3.5207-1.2692 7.8304-1.2692 12.929h20.664c5.4112 0 9.7978 4.3866 9.7978 9.7978v9.2461c0 7.9877-6.4753 14.463-14.463 14.463h-15.999v135.88c0 5.4112-4.3866 9.7978-9.7978 9.7978h-26.822c-5.4112 0-9.7978-4.3866-9.7978-9.7978zm89.572 0v-145.82c0-13.018 10.553-23.572 23.572-23.572h13.774c5.4112 0 9.7978 4.3866 9.7978 9.7978v159.59c0 5.4112-4.3866 9.7978-9.7978 9.7978h-27.548c-5.4112 0-9.7978-4.3866-9.7978-9.7978zm186.03-97.278c-0.24176-6.5557-1.3901-12.322-3.4451-17.3-2.055-4.9775-4.7747-9.1051-8.1594-12.383-3.3847-3.2779-7.2528-5.7059-11.604-7.2841-4.3517-1.5782-8.8242-2.3673-13.418-2.3673-9.4287 0-17.588 3.4599-24.478 10.38-6.8902 6.9199-10.819 16.571-11.786 28.954h72.891zm-74.341 29.865c0.72528 13.597 4.6538 24.402 11.786 32.414 7.1319 8.0125 16.5 12.019 28.105 12.019 7.7363 0 14.566-1.7603 20.489-5.281 5.9231-3.5207 9.7308-8.4374 11.423-14.75h48.594c-5.5605 18.453-15.231 32.657-29.011 42.612-13.78 9.955-30.22 14.932-49.319 14.932-59.473 0-89.209-32.535-89.209-97.607 0-13.84 1.9341-26.344 5.8022-37.513 3.8682-11.169 9.489-20.76 16.863-28.772s16.379-14.143 27.017-18.392c10.637-4.2491 22.846-6.3736 36.627-6.3736 27.561 0 48.412 8.8622 62.555 26.587 14.143 17.725 21.214 44.433 21.214 80.125h-122.93zm139.25 67.414v-211.38c0-13.018 10.553-23.572 23.572-23.572h13.774c5.4112-9.9401e-16 9.7978 4.3866 9.7978 9.7978v225.15c0 5.4112-4.3866 9.7978-9.7978 9.7978h-27.548c-5.4112 0-9.7978-4.3866-9.7978-9.7978zm151.58-24.073c11.363 0 20.852-4.7346 28.467-14.204s11.423-21.852 11.423-37.149c0-38.849-13.176-58.273-39.528-58.273-27.077 0-40.616 18.453-40.616 55.359 0 16.025 3.7472 29.076 11.242 39.152 7.4946 10.076 17.165 15.114 29.011 15.114zm39.005 24.236-0.20274-12.217c-10.879 17.725-27.44 26.587-49.682 26.587-11.363 0-21.758-2.1852-31.187-6.5557-9.4287-4.3705-17.528-10.683-24.297-18.939-6.7693-8.2553-12.088-18.332-15.956-30.229-3.8682-11.897-5.8022-25.373-5.8022-40.427 0-13.597 1.6319-26.041 4.8956-37.331s8.0385-21.063 14.324-29.318c6.2858-8.2553 13.962-14.629 23.028-19.121s19.401-6.7378 31.006-6.7378c22 0 39.648 9.3478 52.945 28.044v-66.004c0-12.626 10.235-22.861 22.861-22.861l13.759 3.5527e-15c5.4112-1.5412e-14 9.7978 4.3866 9.7978 9.7978v225.15c0 5.4112-4.3866 9.7978-9.7978 9.7978h-25.896c-5.3478 0-9.7077-4.2882-9.7964-9.6352zm150.66-24.236c11.363 0 20.852-4.7346 28.467-14.204s11.423-21.852 11.423-37.149c0-38.849-13.176-58.273-39.528-58.273-27.077 0-40.616 18.453-40.616 55.359 0 16.025 3.7472 29.076 11.242 39.152 7.4946 10.076 17.165 15.114 29.011 15.114zm39.005 24.236-0.20274-12.217c-10.879 17.725-27.44 26.587-49.682 26.587-11.363 0-21.758-2.1852-31.187-6.5557-9.4287-4.3705-17.528-10.683-24.297-18.939-6.7693-8.2553-12.088-18.332-15.956-30.229-3.8682-11.897-5.8022-25.373-5.8022-40.427 0-13.597 1.6319-26.041 4.8956-37.331s8.0385-21.063 14.324-29.318c6.2858-8.2553 13.962-14.629 23.028-19.121 9.066-4.4919 19.401-6.7378 31.006-6.7378 22 0 39.648 9.3478 52.945 28.044v-66.004c0-12.626 10.235-22.861 22.861-22.861h13.759c5.4112 1.3424e-14 9.7978 4.3866 9.7978 9.7978v225.15c0 5.4112-4.3866 9.7978-9.7978 9.7978h-25.896c-5.3478 0-9.7077-4.2882-9.7964-9.6352z" fill-rule="nonzero"></path><g transform="translate(117 28)"><path d="m20.182 1.102e-13h26.21v-2.6196e-5c0.31002 0 0.56225 0.24958 0.56554 0.55958 0.062938 5.9408-1.2814 10.252-4.0331 12.935-2.7653 2.6956-6.2613 4.4084-10.488 5.1382-0.11009 0.019011-0.11979 0.023856-0.33392 0.039154-0.21413 0.015297-0.30449 0.015879-0.4364 0.015879h-16.195c-5.9019 0-10.642 2.0309-14.221 6.0928l2.94e-5 2.59e-5c-0.20649 0.23438-0.56388 0.25698-0.79826 0.050494-0.10646-0.093794-0.17378-0.22418-0.1886-0.36528-1.7135-16.31 4.9259-24.465 19.918-24.465z"></path></g></g></g></svg>